<svg xmlns="http://www.w3.org/2000/svg" version="1.1" xmlns:xlink="http://www.w3.org/1999/xlink" xmlns:svgjs="http://svgjs.dev/svgjs" viewBox="0 0 800 800"><g shape-rendering="crispEdges"><g><use xlink:href="#SvgjsSymbol1000" x="450" y="737.5" fill="hsl(286, 100%, 51%)"></use><use xlink:href="#SvgjsSymbol1001" x="450" y="737.5" fill="#fd59ff"></use><use xlink:href="#SvgjsSymbol1002" x="450" y="737.5" fill="#8e00cb"></use></g><g><use xlink:href="#SvgjsSymbol1000" x="475" y="700" fill="hsl(286, 100%, 51%)"></use><use xlink:href="#SvgjsSymbol1001" x="475" y="700" fill="#fd59ff"></use><use xlink:href="#SvgjsSymbol1002" x="475" y="700" fill="#8e00cb"></use></g><g><use xlink:href="#SvgjsSymbol1000" x="500" y="662.5" fill="hsl(286, 100%, 51%)"></use><use xlink:href="#SvgjsSymbol1001" x="500" y="662.5" fill="#fd59ff"></use><use xlink:href="#SvgjsSymbol1002" x="500" y="662.5" fill="#8e00cb"></use></g><g><use xlink:href="#SvgjsSymbol1000" x="525" y="625" fill="hsl(286, 100%, 51%)"></use><use xlink:href="#SvgjsSymbol1001" x="525" y="625" fill="#fd59ff"></use><use xlink:href="#SvgjsSymbol1002" x="525" y="625" fill="#8e00cb"></use></g><g><use xlink:href="#SvgjsSymbol1000" x="550" y="587.5" fill="hsl(286, 100%, 51%)"></use><use xlink:href="#SvgjsSymbol1001" x="550" y="587.5" fill="#fd59ff"></use><use xlink:href="#SvgjsSymbol1002" x="550" y="587.5" fill="#8e00cb"></use></g><g><use xlink:href="#SvgjsSymbol1000" x="575" y="550" fill="hsl(286, 100%, 51%)"></use><use xlink:href="#SvgjsSymbol1001" x="575" y="550" fill="#fd59ff"></use><use xlink:href="#SvgjsSymbol1002" x="575" y="550" fill="#8e00cb"></use></g><g><use xlink:href="#SvgjsSymbol1000" x="600" y="512.5" fill="hsl(286, 100%, 51%)"></use><use xlink:href="#SvgjsSymbol1001" x="600" y="512.5" fill="#fd59ff"></use><use xlink:href="#SvgjsSymbol1002" x="600" y="512.5" fill="#8e00cb"></use></g><g><use xlink:href="#SvgjsSymbol1000" x="625" y="475" fill="hsl(286, 100%, 51%)"></use><use xlink:href="#SvgjsSymbol1001" x="625" y="475" fill="#fd59ff"></use><use xlink:href="#SvgjsSymbol1002" x="625" y="475" fill="#8e00cb"></use></g><g><use xlink:href="#SvgjsSymbol1000" x="650" y="437.5" fill="hsl(286, 100%, 51%)"></use><use xlink:href="#SvgjsSymbol1001" x="650" y="437.5" fill="#fd59ff"></use><use xlink:href="#SvgjsSymbol1002" x="650" y="437.5" fill="#8e00cb"></use></g><g><use xlink:href="#SvgjsSymbol1000" x="675" y="400" fill="hsl(286, 100%, 51%)"></use><use xlink:href="#SvgjsSymbol1001" x="675" y="400" fill="#fd59ff"></use><use xlink:href="#SvgjsSymbol1002" x="675" y="400" fill="#8e00cb"></use></g><g><use xlink:href="#SvgjsSymbol1000" x="700" y="362.5" fill="hsl(286, 100%, 51%)"></use><use xlink:href="#SvgjsSymbol1001" x="700" y="362.5" fill="#fd59ff"></use><use xlink:href="#SvgjsSymbol1002" x="700" y="362.5" fill="#8e00cb"></use></g><g><use xlink:href="#SvgjsSymbol1000" x="725" y="325" fill="hsl(286, 100%, 51%)"></use><use xlink:href="#SvgjsSymbol1001" x="725" y="325" fill="#fd59ff"></use><use xlink:href="#SvgjsSymbol1002" x="725" y="325" fill="#8e00cb"></use></g><g><use xlink:href="#SvgjsSymbol1000" x="750" y="287.5" fill="hsl(286, 100%, 51%)"></use><use xlink:href="#SvgjsSymbol1001" x="750" y="287.5" fill="#fd59ff"></use><use xlink:href="#SvgjsSymbol1002" x="750" y="287.5" fill="#8e00cb"></use></g><g><use xlink:href="#SvgjsSymbol1000" x="425" y="775" fill="hsl(286, 100%, 51%)"></use><use xlink:href="#SvgjsSymbol1001" x="425" y="775" fill="#fd59ff"></use><use xlink:href="#SvgjsSymbol1002" x="425" y="775" fill="#8e00cb"></use></g><g><use xlink:href="#SvgjsSymbol1000" x="475" y="775" fill="hsl(243, 88%, 76%)"></use><use xlink:href="#SvgjsSymbol1001" x="475" y="775" fill="#c5bcff"></use><use xlink:href="#SvgjsSymbol1002" x="475" y="775" fill="#5e5fc5"></use></g><g><use xlink:href="#SvgjsSymbol1000" x="500" y="737.5" fill="hsl(243, 88%, 76%)"></use><use xlink:href="#SvgjsSymbol1001" x="500" y="737.5" fill="#c5bcff"></use><use xlink:href="#SvgjsSymbol1002" x="500" y="737.5" fill="#5e5fc5"></use></g><g><use xlink:href="#SvgjsSymbol1000" x="525" y="700" fill="hsl(243, 88%, 76%)"></use><use xlink:href="#SvgjsSymbol1001" x="525" y="700" fill="#c5bcff"></use><use xlink:href="#SvgjsSymbol1002" x="525" y="700" fill="#5e5fc5"></use></g><g><use xlink:href="#SvgjsSymbol1000" x="550" y="662.5" fill="hsl(243, 88%, 76%)"></use><use xlink:href="#SvgjsSymbol1001" x="550" y="662.5" fill="#c5bcff"></use><use xlink:href="#SvgjsSymbol1002" x="550" y="662.5" fill="#5e5fc5"></use></g><g><use xlink:href="#SvgjsSymbol1000" x="575" y="625" fill="hsl(243, 88%, 76%)"></use><use xlink:href="#SvgjsSymbol1001" x="575" y="625" fill="#c5bcff"></use><use xlink:href="#SvgjsSymbol1002" x="575" y="625" fill="#5e5fc5"></use></g><g><use xlink:href="#SvgjsSymbol1000" x="600" y="587.5" fill="hsl(243, 88%, 76%)"></use><use xlink:href="#SvgjsSymbol1001" x="600" y="587.5" fill="#c5bcff"></use><use xlink:href="#SvgjsSymbol1002" x="600" y="587.5" fill="#5e5fc5"></use></g><g><use xlink:href="#SvgjsSymbol1000" x="625" y="550" fill="hsl(243, 88%, 76%)"></use><use xlink:href="#SvgjsSymbol1001" x="625" y="550" fill="#c5bcff"></use><use xlink:href="#SvgjsSymbol1002" x="625" y="550" fill="#5e5fc5"></use></g><g><use xlink:href="#SvgjsSymbol1000" x="650" y="512.5" fill="hsl(243, 88%, 76%)"></use><use xlink:href="#SvgjsSymbol1001" x="650" y="512.5" fill="#c5bcff"></use><use xlink:href="#SvgjsSymbol1002" x="650" y="512.5" fill="#5e5fc5"></use></g><g><use xlink:href="#SvgjsSymbol1000" x="675" y="475" fill="hsl(243, 88%, 76%)"></use><use xlink:href="#SvgjsSymbol1001" x="675" y="475" fill="#c5bcff"></use><use xlink:href="#SvgjsSymbol1002" x="675" y="475" fill="#5e5fc5"></use></g><g><use xlink:href="#SvgjsSymbol1000" x="700" y="437.5" fill="hsl(243, 88%, 76%)"></use><use xlink:href="#SvgjsSymbol1001" x="700" y="437.5" fill="#c5bcff"></use><use xlink:href="#SvgjsSymbol1002" x="700" y="437.5" fill="#5e5fc5"></use></g><g><use xlink:href="#SvgjsSymbol1000" x="725" y="400" fill="hsl(243, 88%, 76%)"></use><use xlink:href="#SvgjsSymbol1001" x="725" y="400" fill="#c5bcff"></use><use xlink:href="#SvgjsSymbol1002" x="725" y="400" fill="#5e5fc5"></use></g><g><use xlink:href="#SvgjsSymbol1000" x="750" y="362.5" fill="hsl(243, 88%, 76%)"></use><use xlink:href="#SvgjsSymbol1001" x="750" y="362.5" fill="#c5bcff"></use><use xlink:href="#SvgjsSymbol1002" x="750" y="362.5" fill="#5e5fc5"></use></g><g><use xlink:href="#SvgjsSymbol1000" x="775" y="325" fill="hsl(243, 88%, 76%)"></use><use xlink:href="#SvgjsSymbol1001" x="775" y="325" fill="#c5bcff"></use><use xlink:href="#SvgjsSymbol1002" x="775" y="325" fill="#5e5fc5"></use></g><g><use xlink:href="#SvgjsSymbol1000" x="525" y="775" fill="hsl(36, 35%, 86%)"></use><use xlink:href="#SvgjsSymbol1001" x="525" y="775" fill="#ffffff"></use><use xlink:href="#SvgjsSymbol1002" x="525" y="775" fill="#b6ac9e"></use></g><g><use xlink:href="#SvgjsSymbol1000" x="550" y="737.5" fill="hsl(36, 35%, 86%)"></use><use xlink:href="#SvgjsSymbol1001" x="550" y="737.5" fill="#ffffff"></use><use xlink:href="#SvgjsSymbol1002" x="550" y="737.5" fill="#b6ac9e"></use></g><g><use xlink:href="#SvgjsSymbol1000" x="575" y="700" fill="hsl(36, 35%, 86%)"></use><use xlink:href="#SvgjsSymbol1001" x="575" y="700" fill="#ffffff"></use><use xlink:href="#SvgjsSymbol1002" x="575" y="700" fill="#b6ac9e"></use></g><g><use xlink:href="#SvgjsSymbol1000" x="600" y="662.5" fill="hsl(36, 35%, 86%)"></use><use xlink:href="#SvgjsSymbol1001" x="600" y="662.5" fill="#ffffff"></use><use xlink:href="#SvgjsSymbol1002" x="600" y="662.5" fill="#b6ac9e"></use></g><g><use xlink:href="#SvgjsSymbol1000" x="625" y="625" fill="hsl(36, 35%, 86%)"></use><use xlink:href="#SvgjsSymbol1001" x="625" y="625" fill="#ffffff"></use><use xlink:href="#SvgjsSymbol1002" x="625" y="625" fill="#b6ac9e"></use></g><g><use xlink:href="#SvgjsSymbol1000" x="650" y="587.5" fill="hsl(36, 35%, 86%)"></use><use xlink:href="#SvgjsSymbol1001" x="650" y="587.5" fill="#ffffff"></use><use xlink:href="#SvgjsSymbol1002" x="650" y="587.5" fill="#b6ac9e"></use></g><g><use xlink:href="#SvgjsSymbol1000" x="675" y="550" fill="hsl(36, 35%, 86%)"></use><use xlink:href="#SvgjsSymbol1001" x="675" y="550" fill="#ffffff"></use><use xlink:href="#SvgjsSymbol1002" x="675" y="550" fill="#b6ac9e"></use></g><g><use xlink:href="#SvgjsSymbol1000" x="700" y="512.5" fill="hsl(36, 35%, 86%)"></use><use xlink:href="#SvgjsSymbol1001" x="700" y="512.5" fill="#ffffff"></use><use xlink:href="#SvgjsSymbol1002" x="700" y="512.5" fill="#b6ac9e"></use></g><g><use xlink:href="#SvgjsSymbol1000" x="725" y="475" fill="hsl(36, 35%, 86%)"></use><use xlink:href="#SvgjsSymbol1001" x="725" y="475" fill="#ffffff"></use><use xlink:href="#SvgjsSymbol1002" x="725" y="475" fill="#b6ac9e"></use></g><g><use xlink:href="#SvgjsSymbol1000" x="750" y="437.5" fill="hsl(36, 35%, 86%)"></use><use xlink:href="#SvgjsSymbol1001" x="750" y="437.5" fill="#ffffff"></use><use xlink:href="#SvgjsSymbol1002" x="750" y="437.5" fill="#b6ac9e"></use></g><g><use xlink:href="#SvgjsSymbol1000" x="575" y="775" fill="hsl(317, 39%, 49%)"></use><use xlink:href="#SvgjsSymbol1001" x="575" y="775" fill="#e27cc3"></use><use xlink:href="#SvgjsSymbol1002" x="575" y="775" fill="#7c1a64"></use></g><g><use xlink:href="#SvgjsSymbol1000" x="600" y="737.5" fill="hsl(317, 39%, 49%)"></use><use xlink:href="#SvgjsSymbol1001" x="600" y="737.5" fill="#e27cc3"></use><use xlink:href="#SvgjsSymbol1002" x="600" y="737.5" fill="#7c1a64"></use></g><g><use xlink:href="#SvgjsSymbol1000" x="625" y="700" fill="hsl(317, 39%, 49%)"></use><use xlink:href="#SvgjsSymbol1001" x="625" y="700" fill="#e27cc3"></use><use xlink:href="#SvgjsSymbol1002" x="625" y="700" fill="#7c1a64"></use></g><g><use xlink:href="#SvgjsSymbol1000" x="650" y="662.5" fill="hsl(317, 39%, 49%)"></use><use xlink:href="#SvgjsSymbol1001" x="650" y="662.5" fill="#e27cc3"></use><use xlink:href="#SvgjsSymbol1002" x="650" y="662.5" fill="#7c1a64"></use></g><g><use xlink:href="#SvgjsSymbol1000" x="675" y="625" fill="hsl(317, 39%, 49%)"></use><use xlink:href="#SvgjsSymbol1001" x="675" y="625" fill="#e27cc3"></use><use xlink:href="#SvgjsSymbol1002" x="675" y="625" fill="#7c1a64"></use></g><g><use xlink:href="#SvgjsSymbol1000" x="700" y="587.5" fill="hsl(317, 39%, 49%)"></use><use xlink:href="#SvgjsSymbol1001" x="700" y="587.5" fill="#e27cc3"></use><use xlink:href="#SvgjsSymbol1002" x="700" y="587.5" fill="#7c1a64"></use></g><g><use xlink:href="#SvgjsSymbol1000" x="725" y="550" fill="hsl(317, 39%, 49%)"></use><use xlink:href="#SvgjsSymbol1001" x="725" y="550" fill="#e27cc3"></use><use xlink:href="#SvgjsSymbol1002" x="725" y="550" fill="#7c1a64"></use></g><g><use xlink:href="#SvgjsSymbol1000" x="750" y="512.5" fill="hsl(317, 39%, 49%)"></use><use xlink:href="#SvgjsSymbol1001" x="750" y="512.5" fill="#e27cc3"></use><use xlink:href="#SvgjsSymbol1002" x="750" y="512.5" fill="#7c1a64"></use></g><g><use xlink:href="#SvgjsSymbol1000" x="775" y="475" fill="hsl(317, 39%, 49%)"></use><use xlink:href="#SvgjsSymbol1001" x="775" y="475" fill="#e27cc3"></use><use xlink:href="#SvgjsSymbol1002" x="775" y="475" fill="#7c1a64"></use></g><g><use xlink:href="#SvgjsSymbol1000" x="625" y="775" fill="hsl(332, 86%, 48%)"></use><use xlink:href="#SvgjsSymbol1001" x="625" y="775" fill="#ff5ba1"></use><use xlink:href="#SvgjsSymbol1002" x="625" y="775" fill="#ac0048"></use></g><g><use xlink:href="#SvgjsSymbol1000" x="650" y="737.5" fill="hsl(332, 86%, 48%)"></use><use xlink:href="#SvgjsSymbol1001" x="650" y="737.5" fill="#ff5ba1"></use><use xlink:href="#SvgjsSymbol1002" x="650" y="737.5" fill="#ac0048"></use></g><g><use xlink:href="#SvgjsSymbol1000" x="675" y="700" fill="hsl(332, 86%, 48%)"></use><use xlink:href="#SvgjsSymbol1001" x="675" y="700" fill="#ff5ba1"></use><use xlink:href="#SvgjsSymbol1002" x="675" y="700" fill="#ac0048"></use></g><g><use xlink:href="#SvgjsSymbol1000" x="700" y="662.5" fill="hsl(332, 86%, 48%)"></use><use xlink:href="#SvgjsSymbol1001" x="700" y="662.5" fill="#ff5ba1"></use><use xlink:href="#SvgjsSymbol1002" x="700" y="662.5" fill="#ac0048"></use></g><g><use xlink:href="#SvgjsSymbol1000" x="725" y="625" fill="hsl(332, 86%, 48%)"></use><use xlink:href="#SvgjsSymbol1001" x="725" y="625" fill="#ff5ba1"></use><use xlink:href="#SvgjsSymbol1002" x="725" y="625" fill="#ac0048"></use></g><g><use xlink:href="#SvgjsSymbol1000" x="750" y="587.5" fill="hsl(332, 86%, 48%)"></use><use xlink:href="#SvgjsSymbol1001" x="750" y="587.5" fill="#ff5ba1"></use><use xlink:href="#SvgjsSymbol1002" x="750" y="587.5" fill="#ac0048"></use></g><g><use xlink:href="#SvgjsSymbol1000" x="775" y="550" fill="hsl(332, 86%, 48%)"></use><use xlink:href="#SvgjsSymbol1001" x="775" y="550" fill="#ff5ba1"></use><use xlink:href="#SvgjsSymbol1002" x="775" y="550" fill="#ac0048"></use></g><g><use xlink:href="#SvgjsSymbol1000" x="675" y="775" fill="hsl(323, 49%, 68%)"></use><use xlink:href="#SvgjsSymbol1001" x="675" y="775" fill="#ffb6e9"></use><use xlink:href="#SvgjsSymbol1002" x="675" y="775" fill="#a25687"></use></g><g><use xlink:href="#SvgjsSymbol1000" x="700" y="737.5" fill="hsl(323, 49%, 68%)"></use><use xlink:href="#SvgjsSymbol1001" x="700" y="737.5" fill="#ffb6e9"></use><use xlink:href="#SvgjsSymbol1002" x="700" y="737.5" fill="#a25687"></use></g><g><use xlink:href="#SvgjsSymbol1000" x="725" y="700" fill="hsl(323, 49%, 68%)"></use><use xlink:href="#SvgjsSymbol1001" x="725" y="700" fill="#ffb6e9"></use><use xlink:href="#SvgjsSymbol1002" x="725" y="700" fill="#a25687"></use></g><g><use xlink:href="#SvgjsSymbol1000" x="750" y="662.5" fill="hsl(323, 49%, 68%)"></use><use xlink:href="#SvgjsSymbol1001" x="750" y="662.5" fill="#ffb6e9"></use><use xlink:href="#SvgjsSymbol1002" x="750" y="662.5" fill="#a25687"></use></g><g><use xlink:href="#SvgjsSymbol1000" x="775" y="625" fill="hsl(323, 49%, 68%)"></use><use xlink:href="#SvgjsSymbol1001" x="775" y="625" fill="#ffb6e9"></use><use xlink:href="#SvgjsSymbol1002" x="775" y="625" fill="#a25687"></use></g><g><use xlink:href="#SvgjsSymbol1000" x="725" y="775" fill="hsl(262, 98%, 77%)"></use><use xlink:href="#SvgjsSymbol1001" x="725" y="775" fill="#e9bcff"></use><use xlink:href="#SvgjsSymbol1002" x="725" y="775" fill="#825dca"></use></g><g><use xlink:href="#SvgjsSymbol1000" x="750" y="737.5" fill="hsl(262, 98%, 77%)"></use><use xlink:href="#SvgjsSymbol1001" x="750" y="737.5" fill="#e9bcff"></use><use xlink:href="#SvgjsSymbol1002" x="750" y="737.5" fill="#825dca"></use></g><g><use xlink:href="#SvgjsSymbol1000" x="775" y="700" fill="hsl(262, 98%, 77%)"></use><use xlink:href="#SvgjsSymbol1001" x="775" y="700" fill="#e9bcff"></use><use xlink:href="#SvgjsSymbol1002" x="775" y="700" fill="#825dca"></use></g><g><use xlink:href="#SvgjsSymbol1000" x="775" y="775" fill="hsl(226, 35%, 46%)"></use><use xlink:href="#SvgjsSymbol1001" x="775" y="775" fill="#7c8ccf"></use><use xlink:href="#SvgjsSymbol1002" x="775" y="775" fill="#18366f"></use></g><g><use xlink:href="#SvgjsSymbol1000" x="775" y="400" fill="hsl(226, 35%, 46%)"></use><use xlink:href="#SvgjsSymbol1001" x="775" y="400" fill="#7c8ccf"></use><use xlink:href="#SvgjsSymbol1002" x="775" y="400" fill="#18366f"></use></g></g><symbol id="SvgjsSymbol1000"><polygon points="0,12.5 25,0 50,12.5 25,25"></polygon></symbol><symbol id="SvgjsSymbol1001"><polygon points="0,12.5 25,25 25,50 0,37.5"></polygon></symbol><symbol id="SvgjsSymbol1002"><polygon points="25,25 50,12.5 50,37.5 25,50"></polygon></symbol><g></g></svg>
