<svg xmlns="http://www.w3.org/2000/svg" version="1.1" xmlns:xlink="http://www.w3.org/1999/xlink" xmlns:svgjs="http://svgjs.dev/svgjs" viewBox="0 0 2400 800"><defs><linearGradient x1="50%" y1="0%" x2="50%" y2="100%" id="sssurf-grad"><stop stop-color="hsl(265, 55%, 30%)" stop-opacity="1" offset="0%"></stop><stop stop-color="hsl(265, 55%, 60%)" stop-opacity="1" offset="100%"></stop></linearGradient></defs><g fill="url(#sssurf-grad)" transform="matrix(1,0,0,1,0,-90.75936889648438)"><path d="M 0 325.49333986832653 Q 600 450 600 301.683689492376 Q 1200 450 1200 338.6638879314586 Q 1800 450 1800 303.77540272835785 Q 2400 450 2400 303.31123110942906 L 2400 800 L 0 800 L 0 301.51871078391696 Z" transform="matrix(1,0,0,1,0,35)" opacity="0.05"></path><path d="M 0 325.49333986832653 Q 600 450 600 301.683689492376 Q 1200 450 1200 338.6638879314586 Q 1800 450 1800 303.77540272835785 Q 2400 450 2400 303.31123110942906 L 2400 800 L 0 800 L 0 301.51871078391696 Z" transform="matrix(1,0,0,1,0,70)" opacity="0.21"></path><path d="M 0 325.49333986832653 Q 600 450 600 301.683689492376 Q 1200 450 1200 338.6638879314586 Q 1800 450 1800 303.77540272835785 Q 2400 450 2400 303.31123110942906 L 2400 800 L 0 800 L 0 301.51871078391696 Z" transform="matrix(1,0,0,1,0,105)" opacity="0.37"></path><path d="M 0 325.49333986832653 Q 600 450 600 301.683689492376 Q 1200 450 1200 338.6638879314586 Q 1800 450 1800 303.77540272835785 Q 2400 450 2400 303.31123110942906 L 2400 800 L 0 800 L 0 301.51871078391696 Z" transform="matrix(1,0,0,1,0,140)" opacity="0.53"></path><path d="M 0 325.49333986832653 Q 600 450 600 301.683689492376 Q 1200 450 1200 338.6638879314586 Q 1800 450 1800 303.77540272835785 Q 2400 450 2400 303.31123110942906 L 2400 800 L 0 800 L 0 301.51871078391696 Z" transform="matrix(1,0,0,1,0,175)" opacity="0.68"></path><path d="M 0 325.49333986832653 Q 600 450 600 301.683689492376 Q 1200 450 1200 338.6638879314586 Q 1800 450 1800 303.77540272835785 Q 2400 450 2400 303.31123110942906 L 2400 800 L 0 800 L 0 301.51871078391696 Z" transform="matrix(1,0,0,1,0,210)" opacity="0.84"></path><path d="M 0 325.49333986832653 Q 600 450 600 301.683689492376 Q 1200 450 1200 338.6638879314586 Q 1800 450 1800 303.77540272835785 Q 2400 450 2400 303.31123110942906 L 2400 800 L 0 800 L 0 301.51871078391696 Z" transform="matrix(1,0,0,1,0,245)" opacity="1"></path></g></svg>